<svg width="44" height="44" fill="none" xmlns="http://www.w3.org/2000/svg"><path d="M26.07 17.93 22 19.965m0 0-4.07-2.035M22 19.965v5.097m4.07-19.36L22 3.667l-4.07 2.035M9.772 34.228l-4.07-2.035v-5.096m28.527 7.131 4.07-2.035v-5.096" stroke="#1E293B" stroke-width="2.75" stroke-linecap="round" stroke-linejoin="round"/><path d="m38.299 12.668-4.07 2.035m4.07-2.035-4.07-2.035m4.07 2.035v5.097M5.702 12.668l4.07-2.035m-4.07 2.035 4.07 2.035m-4.07-2.035v5.097M17.93 39.16 22 41.195l4.07-2.035M22 41.197V36.1" stroke="#1E293B" stroke-width="2.75" stroke-linecap="round" stroke-linejoin="round" opacity=".4"/></svg>