<svg width="44" height="44" viewBox="0 0 44 44" fill="none" xmlns="http://www.w3.org/2000/svg">
<g id="Frame">
<path id="Vector" d="M26.0705 17.9301L22.0005 19.9651M22.0005 19.9651L17.9305 17.9301M22.0005 19.9651V25.0617M26.0705 5.70175L22.0005 3.66675L17.9305 5.70175M9.77215 34.2284L5.70215 32.1934V27.0967M34.2288 34.2284L38.2988 32.1934V27.0967" stroke="#1E293B" stroke-width="2.75" stroke-linecap="round" stroke-linejoin="round"/>
<g id="Group" opacity="0.4">
<path id="Vector_2" d="M38.2988 12.6683L34.2288 14.7033M38.2988 12.6683L34.2288 10.6333M38.2988 12.6683V17.765M5.70215 12.6683L9.77215 10.6333M5.70215 12.6683L9.77215 14.7033M5.70215 12.6683V17.765M17.9305 39.16L22.0005 41.195L26.0705 39.16M22.0005 41.1968V36.1001" stroke="#1E293B" stroke-width="2.75" stroke-linecap="round" stroke-linejoin="round"/>
</g>
</g>
</svg>
