<svg width="16" height="12" viewBox="0 0 16 12" fill="none" xmlns="http://www.w3.org/2000/svg">
<g id="flag">
<g id="contents">
<path id="background" fill-rule="evenodd" clip-rule="evenodd" d="M0 0V12H16V0H0Z" fill="#2E42A5"/>
<mask id="mask0_1517_1085" style="mask-type:luminance" maskUnits="userSpaceOnUse" x="0" y="0" width="16" height="12">
<path id="background_2" fill-rule="evenodd" clip-rule="evenodd" d="M0 0V12H16V0H0Z" fill="white"/>
</mask>
<g mask="url(#mask0_1517_1085)">
<g id="mark 1">
<g id="contents_2">
<g id="stripe">
<path id="white" d="M-1.78125 11.1426L1.73959 12.6316L16.0802 1.61878L17.9374 -0.593959L14.1723 -1.09164L8.32315 3.6541L3.61514 6.85161L-1.78125 11.1426Z" fill="white"/>
<path id="red" d="M-1.29883 12.1859L0.49488 13.05L17.2709 -0.799421H14.7523L-1.29883 12.1859Z" fill="#F50100"/>
</g>
<g id="stripe_2">
<path id="white_2" d="M17.7832 11.1428L14.2624 12.6318L-0.0782604 1.61903L-1.93542 -0.593715L1.82961 -1.09139L7.67881 3.65434L12.3868 6.85186L17.7832 11.1428Z" fill="white"/>
<path id="red_2" d="M17.6631 11.8913L15.8694 12.7554L8.72598 6.82569L6.60811 6.16318L-2.11411 -0.586414H0.404467L9.12179 6.00298L11.4373 6.7974L17.6631 11.8913Z" fill="#F50100"/>
</g>
<g id="cross">
<g id="red_3">
<mask id="path-7-inside-1_1517_1085" fill="white">
<path fill-rule="evenodd" clip-rule="evenodd" d="M9.89106 -1H6.11328V4H-0.984375V8H6.11328V13H9.89106V8H17.0156V4H9.89106V-1Z"/>
</mask>
<path fill-rule="evenodd" clip-rule="evenodd" d="M9.89106 -1H6.11328V4H-0.984375V8H6.11328V13H9.89106V8H17.0156V4H9.89106V-1Z" fill="#F50100"/>
<path d="M6.11328 -1V-2H5.11328V-1H6.11328ZM9.89106 -1H10.8911V-2H9.89106V-1ZM6.11328 4V5H7.11328V4H6.11328ZM-0.984375 4V3H-1.98438V4H-0.984375ZM-0.984375 8H-1.98438V9H-0.984375V8ZM6.11328 8H7.11328V7H6.11328V8ZM6.11328 13H5.11328V14H6.11328V13ZM9.89106 13V14H10.8911V13H9.89106ZM9.89106 8V7H8.89106V8H9.89106ZM17.0156 8V9H18.0156V8H17.0156ZM17.0156 4H18.0156V3H17.0156V4ZM9.89106 4H8.89106V5H9.89106V4ZM6.11328 0H9.89106V-2H6.11328V0ZM7.11328 4V-1H5.11328V4H7.11328ZM-0.984375 5H6.11328V3H-0.984375V5ZM0.015625 8V4H-1.98438V8H0.015625ZM6.11328 7H-0.984375V9H6.11328V7ZM7.11328 13V8H5.11328V13H7.11328ZM9.89106 12H6.11328V14H9.89106V12ZM8.89106 8V13H10.8911V8H8.89106ZM17.0156 7H9.89106V9H17.0156V7ZM16.0156 4V8H18.0156V4H16.0156ZM9.89106 5H17.0156V3H9.89106V5ZM8.89106 -1V4H10.8911V-1H8.89106Z" fill="white" mask="url(#path-7-inside-1_1517_1085)"/>
</g>
</g>
</g>
</g>
</g>
</g>
</g>
</svg>
