<svg width="16" height="12" fill="none" xmlns="http://www.w3.org/2000/svg"><path fill-rule="evenodd" clip-rule="evenodd" d="M0 0v12h16V0H0Z" fill="#2E42A5"/><mask id="a" style="mask-type:luminance" maskUnits="userSpaceOnUse" x="0" y="0" width="16" height="12"><path fill-rule="evenodd" clip-rule="evenodd" d="M0 0v12h16V0H0Z" fill="#fff"/></mask><g mask="url(#a)"><path d="m-1.781 11.143 3.52 1.489L16.08 1.619l1.857-2.213-3.765-.498-5.849 4.746-4.708 3.198-5.396 4.29Z" fill="#fff"/><path d="m-1.299 12.186 1.794.864L17.27-.8h-2.519l-16.05 12.986Z" fill="#F50100"/><path d="m17.783 11.143-3.52 1.489L-.079 1.619-1.935-.594 1.83-1.09l5.849 4.745 4.708 3.198 5.396 4.29Z" fill="#fff"/><path d="m17.663 11.891-1.794.864-7.143-5.93-2.118-.662-8.722-6.75H.404l8.718 6.59 2.315.794 6.226 5.094Z" fill="#F50100"/><mask id="b" fill="#fff"><path fill-rule="evenodd" clip-rule="evenodd" d="M9.891-1H6.113v5H-.984v4h7.097v5h3.778V8h7.125V4H9.89v-5Z"/></mask><path fill-rule="evenodd" clip-rule="evenodd" d="M9.891-1H6.113v5H-.984v4h7.097v5h3.778V8h7.125V4H9.89v-5Z" fill="#F50100"/><path d="M6.113-1v-1h-1v1h1Zm3.778 0h1v-1h-1v1ZM6.113 4v1h1V4h-1ZM-.984 4V3h-1v1h1Zm0 4h-1v1h1V8Zm7.097 0h1V7h-1v1Zm0 5h-1v1h1v-1Zm3.778 0v1h1v-1h-1Zm0-5V7h-1v1h1Zm7.125 0v1h1V8h-1Zm0-4h1V3h-1v1ZM9.89 4h-1v1h1V4ZM6.113 0h3.778v-2H6.113v2Zm1 4v-5h-2v5h2ZM-.984 5h7.097V3H-.984v2Zm1 3V4h-2v4h2Zm6.097-1H-.984v2h7.097V7Zm1 6V8h-2v5h2Zm2.778-1H6.113v2h3.778v-2Zm-1-4v5h2V8h-2Zm8.125-1H9.89v2h7.125V7Zm-1-3v4h2V4h-2ZM9.89 5h7.125V3H9.89v2Zm-1-6v5h2v-5h-2Z" fill="#fff" mask="url(#b)"/></g></svg>