<svg width="44" height="44" fill="none" xmlns="http://www.w3.org/2000/svg"><g stroke="#1E293B" stroke-width="2.75" stroke-linecap="round" stroke-linejoin="round"><path d="M14.96 40.333c-7.663 0-9.203-4.638-6.71-10.285l7.792-17.691h-.55a4.352 4.352 0 0 1-4.364-4.345 4.354 4.354 0 0 1 4.345-4.345h13.035c1.21 0 2.292.495 3.08 1.283a4.324 4.324 0 0 1 1.155 4.125c-.495 1.98-2.401 3.282-4.436 3.282h-.294l7.737 17.71c2.475 5.646.862 10.266-6.728 10.266H14.96Z"/><path opacity=".4" d="M10.89 24.053s5.61-.22 11.11 1.614c5.5 1.833 10.688-1.632 10.688-1.632"/></g></svg>