<svg width="37" height="38" fill="none" xmlns="http://www.w3.org/2000/svg"><circle cx="18.25" cy="18.88" r="18.25" fill="#F0EFEA"/><g fill="#015F26"><path d="M23.898 10.34H13.019a3.153 3.153 0 0 0-3.149 3.15v10.879a3.153 3.153 0 0 0 3.15 3.15h10.878a3.153 3.153 0 0 0 3.15-3.15v-10.88a3.153 3.153 0 0 0-3.15-3.148Zm-5.44 14.244a5.661 5.661 0 0 1-5.654-5.654 5.661 5.661 0 0 1 5.655-5.655 5.661 5.661 0 0 1 5.654 5.655 5.662 5.662 0 0 1-5.654 5.654Zm4.499-11.478a1.34 1.34 0 0 0 2.676 0 1.34 1.34 0 0 0-2.676 0Z"/><path d="M18.458 15.664a3.27 3.27 0 0 0-3.266 3.265 3.27 3.27 0 0 0 3.266 3.265c1.8 0 3.265-1.465 3.265-3.265s-1.465-3.265-3.265-3.265Z"/><path d="M.208 18.88C.208 8.8 8.379.63 18.458.63s18.25 8.171 18.25 18.25-8.171 18.25-18.25 18.25S.208 28.959.208 18.88Zm23.69 11.027a5.544 5.544 0 0 0 5.538-5.538v-10.88a5.545 5.545 0 0 0-5.539-5.538H13.02a5.545 5.545 0 0 0-5.54 5.539v10.879a5.545 5.545 0 0 0 5.539 5.538h10.878Z"/></g></svg>