<svg width="44" height="44" viewBox="0 0 44 44" fill="none" xmlns="http://www.w3.org/2000/svg">
<g id="Frame">
<path id="Vector" d="M7.64472 28.0501L15.9497 36.3551C17.5924 37.993 19.8175 38.9127 22.1372 38.9127C24.4569 38.9127 26.682 37.993 28.3247 36.3551L36.3731 28.3067C38.0109 26.6641 38.9307 24.439 38.9307 22.1192C38.9307 19.7995 38.0109 17.5744 36.3731 15.9317L28.0497 7.64508C27.1892 6.78214 26.1571 6.10943 25.0202 5.67046C23.8833 5.2315 22.6669 5.03604 21.4497 5.09675L12.2831 5.53675C8.61639 5.70175 5.70139 8.61675 5.51806 12.2651L5.07806 21.4317C4.96806 23.9067 5.90306 26.3084 7.64472 28.0501Z" stroke="#1E293B" stroke-width="2.75" stroke-linecap="round" stroke-linejoin="round"/>
<path id="Vector_2" opacity="0.4" d="M17.4163 21.9999C18.6319 21.9999 19.7977 21.517 20.6572 20.6575C21.5168 19.7979 21.9997 18.6322 21.9997 17.4166C21.9997 16.201 21.5168 15.0352 20.6572 14.1757C19.7977 13.3161 18.6319 12.8333 17.4163 12.8333C16.2008 12.8333 15.035 13.3161 14.1754 14.1757C13.3159 15.0352 12.833 16.201 12.833 17.4166C12.833 18.6322 13.3159 19.7979 14.1754 20.6575C15.035 21.517 16.2008 21.9999 17.4163 21.9999Z" stroke="#1E293B" stroke-width="2.75" stroke-linecap="round"/>
</g>
</svg>
