<svg width="32" height="24" fill="none" xmlns="http://www.w3.org/2000/svg"><path fill-rule="evenodd" clip-rule="evenodd" d="M0 0h32v24H0V0Z" fill="#F7FCFF"/><path fill="#E31D1C" d="M.027 5h32v2.9h-32zm0 5.2h32v2.9h-32zm.084 5h32v2.5h-32zm0 5h32v2.7h-32z"/><path fill-rule="evenodd" clip-rule="evenodd" d="M0 0h32v2.5H0V0Z" fill="#E31D1C"/><path fill-rule="evenodd" clip-rule="evenodd" d="M0 0h16v12H0V0Z" fill="#3D58DB"/><path fill-rule="evenodd" clip-rule="evenodd" d="M3.594 6.202c0 1.376.648 2.678 1.967 2.678 1.978 0 2.363-.422 3.286-1.004.219.49-.518 2.588-3.313 2.588C3.297 10.42 1.49 8.623 1.49 6.202c0-2.778 2.044-4.279 3.988-4.262 1.716 0 3.536.974 3.48 2.216-.809-.79-1.687-.79-3.148-.79-1.462 0-2.216 1.46-2.216 2.836Z" fill="#FECA00"/><path fill-rule="evenodd" clip-rule="evenodd" d="m11 7.3-.927 1.353.045-1.64-1.545.55 1-1.3L8 5.8l1.573-.463-1-1.3 1.545.55-.045-1.64L11 4.3l.927-1.353-.045 1.64 1.545-.55-1 1.3L14 5.8l-1.573.464 1 1.3-1.545-.55.045 1.64L11 7.3Z" fill="#FECA00"/></svg>