<svg width="44" height="44" fill="none" xmlns="http://www.w3.org/2000/svg"><g stroke="#1E293B" stroke-width="2.75" stroke-linecap="round" stroke-linejoin="round"><path opacity=".34" d="m15.363 21.996 4.419 4.437 8.855-8.873"/><path d="M19.708 4.492c1.265-1.082 3.337-1.082 4.62 0l2.897 2.493c.55.477 1.577.862 2.31.862h3.117a3.552 3.552 0 0 1 3.538 3.538v3.117c0 .715.385 1.76.862 2.31l2.493 2.896c1.082 1.265 1.082 3.337 0 4.62l-2.493 2.897c-.477.55-.862 1.577-.862 2.31v3.117a3.552 3.552 0 0 1-3.538 3.538h-3.117c-.715 0-1.76.385-2.31.862l-2.897 2.493c-1.265 1.082-3.336 1.082-4.62 0l-2.896-2.493c-.55-.477-1.577-.862-2.31-.862H11.33a3.552 3.552 0 0 1-3.538-3.538v-3.135c0-.715-.385-1.742-.844-2.292L4.473 24.31c-1.063-1.265-1.063-3.318 0-4.583l2.475-2.915c.459-.55.844-1.577.844-2.292v-3.153a3.552 3.552 0 0 1 3.538-3.539h3.172c.715 0 1.76-.385 2.31-.861l2.896-2.475Z"/></g></svg>