<svg width="37" height="38" fill="none" xmlns="http://www.w3.org/2000/svg"><path d="M18.258 37.13c10.079 0 18.25-8.17 18.25-18.25S28.337.63 18.258.63C8.178.63.008 8.8.008 18.88s8.17 18.25 18.25 18.25Z" fill="#015F26"/><path d="M30.46 13.704a8.7 8.7 0 0 1-2.505.686 4.374 4.374 0 0 0 1.919-2.413c-.843.5-1.777.863-2.77 1.058a4.363 4.363 0 0 0-7.434 3.98 12.383 12.383 0 0 1-8.992-4.559 4.362 4.362 0 0 0 1.35 5.824 4.332 4.332 0 0 1-1.976-.546v.056a4.365 4.365 0 0 0 3.5 4.277 4.347 4.347 0 0 1-1.97.075 4.367 4.367 0 0 0 4.075 3.03 8.753 8.753 0 0 1-5.419 1.867c-.351 0-.7-.02-1.04-.061a12.339 12.339 0 0 0 6.687 1.96c8.023 0 12.411-6.647 12.411-12.412 0-.19-.004-.378-.012-.564a8.847 8.847 0 0 0 2.177-2.258Z" fill="#F0EFEA"/></svg>